PathFileType	4	(X/Y/Z)	E:\Qualisys_Data\Carbon_Farble_Plate\Data\Amateur_Runner\S2\T2\S2T2V21_c3d.trc
DataRate	CameraRate	NumFrames	NumMarkers	Units	OrigDataRate	OrigDataStartFrame	OrigNumFrames
200.000000	200.000000	4	39	mm	200.000000	117	313
Frame#	Time	LSHO			RSHO			LICST			RICST			LASIS			LHEEL			RASIS			LTROC			RTROC			SACR			LTH1			LSK4			LTH2			LTH3			RHM5			LSK2			LTH4			RTH1			LTOE			RTH2			RTH3			RTH4			LLEP			RLEP			LSK1			LSK3			RSK1			LHM5			RSK2			LFT1			RSK3			RSK4			LLME			RLME			RTOE			RHEEL			RFT1			RFT2			LFT2			
		X1	Y1	Z1	X2	Y2	Z2	X3	Y3	Z3	X4	Y4	Z4	X5	Y5	Z5	X6	Y6	Z6	X7	Y7	Z7	X8	Y8	Z8	X9	Y9	Z9	X10	Y10	Z10	X11	Y11	Z11	X12	Y12	Z12	X13	Y13	Z13	X14	Y14	Z14	X15	Y15	Z15	X16	Y16	Z16	X17	Y17	Z17	X18	Y18	Z18	X19	Y19	Z19	X20	Y20	Z20	X21	Y21	Z21	X22	Y22	Z22	X23	Y23	Z23	X24	Y24	Z24	X25	Y25	Z25	X26	Y26	Z26	X27	Y27	Z27	X28	Y28	Z28	X29	Y29	Z29	X30	Y30	Z30	X31	Y31	Z31	X32	Y32	Z32	X33	Y33	Z33	X34	Y34	Z34	X35	Y35	Z35	X36	Y36	Z36	X37	Y37	Z37	X38	Y38	Z38	X39	Y39	Z39	

118	0.585	-773.5698852539062	1429.872314453125	-471.2160034179688	-759.4839477539062	1431.650390625	-151.9019317626953	-852.61474609375	979.1060791015624	-432.9300537109375	-814.8790893554688	969.5440673828124	-130.4565887451172	-793.478759765625	929.9741821289062	-422.6861877441406	-1172.761962890625	137.7762603759766	-257.6625671386719	-756.7295532226562	924.2501831054688	-160.4423980712891	-928.2957153320312	858.9937133789062	-419.2764282226562	-893.8568725585938	864.77783203125	-120.2185821533203	-919.1820678710938	1019.456604003906	-272.4915466308594	-829.2048950195312	618.4573974609375	-425.7784118652344	-1041.176513671875	298.1199035644531	-365.6597595214844	-910.033203125	623.8870849609375	-419.3282775878906	-834.6119995117188	517.999267578125	-396.0419921875	-1050.181884765625	334.0551147460938	-106.3440399169922	-987.3406372070312	379.3867492675781	-390.2142333984375	-917.401611328125	528.0670776367188	-388.350830078125	-656.1698608398438	673.6702270507812	-112.3892440795898	-942.5095825195312	66.10283660888672	-281.9754333496094	-727.1201171875	639.013671875	-102.9550628662109	-613.7487182617188	582.1415405273438	-126.8080368041992	-688.6759643554688	549.067138671875	-118.1969680786133	-884.4108276367188	470.3023681640625	-387.5113830566406	-650.609375	530.1386108398438	-115.2385635375977	-921.208984375	337.73779296875	-377.0530700683594	-975.0308227539062	256.0159606933594	-356.5569152832031	-728.3033447265625	461.4048767089844	-120.6626281738281	-1002.111083984375	64.45768737792969	-341.8489685058594	-740.8772583007812	540.91455078125	-110.5568923950195	-1170.488525390625	106.507698059082	-237.0368041992188	-829.5533447265625	446.0	-124.4166488647461	-838.2850341796875	525.414306640625	-119.3606643676758	-1104.350952148438	136.2737884521484	-320.7603454589844	-1019.414611816406	455.700439453125	-139.77099609375	-1022.360412597656	263.8759460449219	-162.1122894287109	-1044.41796875	510.5028076171875	-198.1338348388672	-1072.7021484375	488.2735290527344	-226.0954895019531	-1074.647583007812	507.1942138671875	-173.0809478759766	-1178.900634765625	107.020622253418	-288.7005310058594
119	0.59	-750.6625366210938	1435.706420898438	-469.804931640625	-741.9282836914062	1436.426879882812	-151.5660705566406	-828.9827270507812	982.6838989257812	-434.0713500976562	-794.0811157226562	975.2667846679688	-131.1779327392578	-771.8184204101562	932.873779296875	-422.9558715820312	-1169.690673828125	143.1793212890625	-258.4768371582031	-736.200439453125	929.299560546875	-161.1641693115234	-907.8870849609376	863.5562133789062	-419.0747375488281	-872.5570068359375	870.4166870117188	-119.8947296142578	-898.0711669921875	1023.830627441406	-274.19384765625	-815.3745727539062	622.9497680664062	-424.7927856445312	-1035.923583984375	305.6650695800781	-367.2756958007812	-896.3973388671875	630.0731811523438	-419.6408081054688	-823.351318359375	522.5386962890625	-396.1908874511719	-1013.038757324219	322.4135131835938	-105.4842910766602	-981.3756103515624	385.7040710449219	-390.591552734375	-906.0363159179688	533.9821166992188	-388.6510009765625	-632.8838500976562	682.9033203125	-113.9035720825195	-941.6904907226562	66.31371307373047	-282.2086181640625	-702.8038330078125	646.263671875	-104.7662200927734	-587.9697265625	592.2245483398438	-128.7379455566406	-662.26025390625	557.8307495117188	-120.0573806762695	-876.1105346679688	475.7838439941406	-388.1542663574219	-623.05859375	539.7579956054688	-117.0895538330078	-915.7042236328124	344.0446166992188	-378.6362609863281	-970.2047119140624	262.2508850097656	-358.8272705078125	-698.6185913085938	466.8569030761719	-122.4467697143555	-1000.851257324219	65.04987335205078	-341.4498901367188	-715.3862915039062	545.5111083984375	-111.6719741821289	-1167.412353515625	111.8639144897461	-238.2364959716797	-799.0021362304688	446.5578308105469	-125.0850372314453	-811.701416015625	525.0531616210938	-120.2999114990234	-1099.524536132812	141.7022094726562	-322.3546447753906	-989.826171875	445.595947265625	-140.4761657714844	-980.1533813476562	254.1634979248047	-161.0877838134766	-1018.854431152344	498.26416015625	-198.8593902587891	-1045.083129882812	474.2649230957031	-226.3790435791016	-1045.905029296875	492.7190551757812	-172.6558074951172	-1176.299682617188	112.2611312866211	-289.6388549804688
120	0.595	-728.3662109375	1441.646606445312	-468.5044250488281	-724.3821411132812	1441.576904296875	-151.1394805908203	-805.8328247070312	985.8692016601562	-434.7698669433594	-773.2328491210938	981.0744018554688	-131.6316680908203	-750.1151123046875	935.6207275390624	-423.0308532714844	-1165.718872070312	150.5927734375	-260.3506164550781	-715.2417602539062	935.0623168945312	-161.7035369873047	-887.9927368164062	868.5386962890625	-418.8695068359375	-850.6632690429688	876.474853515625	-119.4512710571289	-876.6484375	1028.385009765625	-275.73876953125	-801.2447509765625	628.0419921875	-423.8778991699219	-1030.046997070312	312.9253234863281	-368.8660278320312	-882.3953857421875	636.1743774414062	-420.4337768554688	-811.6029663085938	527.3102416992188	-396.1043090820312	-975.313720703125	311.2293701171875	-104.8789978027344	-974.7354736328124	392.8600463867188	-391.7631530761719	-894.575439453125	540.4852905273438	-389.3864440917969	-609.6448974609375	691.7062377929688	-115.2782135009766	-940.640380859375	66.7680892944336	-282.9112854003906	-678.30615234375	654.4765625	-106.3848419189453	-562.9371337890625	602.587646484375	-131.0846557617188	-636.2030029296875	566.1058959960938	-122.107536315918	-867.1030883789062	481.451416015625	-388.788330078125	-597.2083129882812	548.4490966796875	-119.6101303100586	-909.6785278320312	350.4110107421875	-380.2968139648438	-964.8168334960938	268.5584716796875	-360.8532104492188	-669.2259521484375	472.1922607421875	-123.5495376586914	-999.9946899414062	65.95994567871094	-342.0205993652344	-689.4192504882812	549.1204223632812	-114.3470916748047	-1163.828491210938	119.2051620483398	-239.5552825927734	-768.2816772460938	445.9134521484375	-126.088981628418	-785.4486694335938	524.2657470703125	-121.1775817871094	-1094.6162109375	148.2631225585938	-324.7174987792969	-960.0418701171876	434.9630126953125	-140.9340515136719	-937.4816284179688	244.6042327880859	-159.8340148925781	-992.4938354492188	485.8285217285156	-199.3856811523438	-1016.736328125	460.4168090820312	-228.6862335205078	-1020.890258789062	478.6595764160156	-174.5561370849609	-1173.00732421875	118.621337890625	-290.5351257324219
121	0.6	-705.7874145507812	1447.599365234375	-467.1466369628906	-707.0390014648438	1446.34912109375	-151.0029296875	-782.4389038085938	989.8300170898438	-435.4996643066406	-752.2260131835938	986.990966796875	-132.3249359130859	-728.3447875976562	938.6627807617188	-423.2711486816406	-1160.119750976562	158.1880798339844	-261.8482971191406	-694.3623657226562	940.9046020507812	-162.2785339355469	-868.129638671875	873.7208862304688	-418.5179748535156	-828.4781494140625	882.9521484375	-118.2380447387695	-855.4122924804688	1033.103271484375	-277.2254028320312	-785.9214477539062	631.350341796875	-422.8228759765625	-1023.678283691406	321.1923217773438	-370.6095275878906	-867.4707641601562	642.772216796875	-421.2424011230469	-799.82568359375	531.863037109375	-394.8701171875	-936.80517578125	300.0992126464844	-104.3759765625	-967.8846435546876	400.3339233398438	-393.3485412597656	-882.5403442382812	547.2032470703125	-390.2838439941406	-586.6121215820312	700.5902709960938	-116.7800750732422	-938.8795776367188	67.4493408203125	-283.6001281738281	-654.4943237304688	661.4915771484375	-108.4896545410156	-538.2923583984375	612.1328125	-132.5602569580078	-611.0663452148438	574.0084838867188	-124.6490020751953	-857.845703125	487.4461364746094	-389.6471557617188	-571.9373168945312	557.3787841796875	-121.5285949707031	-903.0933837890624	357.511962890625	-382.0375671386719	-959.3975830078124	276.2640380859375	-363.2928466796875	-640.5673828125	477.0921936035156	-124.7717208862305	-997.6682739257812	67.30648803710938	-343.0716857910156	-665.193359375	554.0040283203125	-115.8287887573242	-1159.421508789062	127.5810165405273	-241.2573089599609	-738.5394897460938	445.8479309082031	-126.948127746582	-759.3778076171875	522.91552734375	-122.4139709472656	-1088.288940429688	154.7019653320312	-327.0374755859375	-929.6476440429688	424.1656494140625	-141.2794189453125	-894.2772827148438	236.1372222900391	-158.8218078613281	-964.998779296875	471.6819763183594	-200.6084136962891	-987.4678955078124	445.4022827148438	-228.6561279296875	-994.3778076171876	463.7242736816406	-177.0509033203125	-1168.001831054688	126.1789703369141	-291.8794555664062
